<svg height="600" viewBox="0 0 600 600" xmlns="http://www.w3.org/2000/svg" xmlns:xlink="http://www.w3.org/1999/xlink">
  <path d="M600.00,300.00A300,300,0,0,1,599.98,303.51L578.98,303.26A279,279,0,0,0,579.00,300.00Z" style="fill:#ffffff;stroke:none"/>
  <path d="M559.81,450.00A300,300,0,0,1,558.04,453.03L539.97,442.31A279,279,0,0,0,541.62,439.50Z" style="fill:#ffffff;stroke:none"/>
  <path d="M450.00,559.81A300,300,0,0,1,446.95,561.54L436.67,543.23A279,279,0,0,0,439.50,541.62Z" style="fill:#ffffff;stroke:none"/>
  <path d="M300.00,600.00A300,300,0,0,1,296.49,599.98L296.74,578.98A279,279,0,0,0,300.00,579.00Z" style="fill:#ffffff;stroke:none"/>
  <path d="M150.00,559.81A300,300,0,0,1,146.97,558.04L157.69,539.97A279,279,0,0,0,160.50,541.62Z" style="fill:#ffffff;stroke:none"/>
  <path d="M40.192,450.00A300,300,0,0,1,38.457,446.95L56.765,436.67A279,279,0,0,0,58.379,439.50Z" style="fill:#ffffff;stroke:none"/>
  <path d="M0.0000,300.00A300,300,0,0,1,0.020489,296.49L21.019,296.74A279,279,0,0,0,21.000,300.00Z" style="fill:#ffffff;stroke:none"/>
  <path d="M40.192,150.00A300,300,0,0,1,41.963,146.97L60.026,157.69A279,279,0,0,0,58.379,160.50Z" style="fill:#ffffff;stroke:none"/>
  <path d="M150.00,40.192A300,300,0,0,1,153.05,38.457L163.33,56.765A279,279,0,0,0,160.50,58.379Z" style="fill:#ffffff;stroke:none"/>
  <path d="M300.00,0.0000A300,300,0,0,1,303.51,0.020489L303.26,21.019A279,279,0,0,0,300.00,21.000Z" style="fill:#ffffff;stroke:none"/>
  <path d="M450.00,40.192A300,300,0,0,1,453.03,41.963L442.31,60.026A279,279,0,0,0,439.50,58.379Z" style="fill:#ffffff;stroke:none"/>
  <path d="M559.81,150.00A300,300,0,0,1,561.54,153.05L543.23,163.33A279,279,0,0,0,541.62,160.50Z" style="fill:#ffffff;stroke:none"/>
</svg>