<svg height="600" viewBox="0 0 600 600" xmlns="http://www.w3.org/2000/svg" xmlns:xlink="http://www.w3.org/1999/xlink">
  <path d="M600.00,300.00A300,300,0,0,1,582.46,401.07L562.69,393.99A279,279,0,0,0,579.00,300.00Z" style="fill:#000000;stroke:none"/>
  <path d="M577.16,414.81A300,300,0,0,1,522.29,501.47L506.73,487.36A279,279,0,0,0,557.76,406.77Z" style="fill:#000000;stroke:none"/>
  <path d="M512.13,512.13A300,300,0,0,1,428.27,571.20L419.29,552.21A279,279,0,0,0,497.28,497.28Z" style="fill:#000000;stroke:none"/>
  <path d="M414.81,577.16A300,300,0,0,1,314.72,599.64L313.69,578.66A279,279,0,0,0,406.77,557.76Z" style="fill:#000000;stroke:none"/>
  <path d="M300.00,600.00A300,300,0,0,1,198.93,582.46L206.01,562.69A279,279,0,0,0,300.00,579.00Z" style="fill:#000000;stroke:none"/>
  <path d="M185.19,577.16A300,300,0,0,1,98.532,522.29L112.64,506.73A279,279,0,0,0,193.23,557.76Z" style="fill:#000000;stroke:none"/>
  <path d="M87.868,512.13A300,300,0,0,1,28.803,428.27L47.787,419.29A279,279,0,0,0,102.72,497.28Z" style="fill:#000000;stroke:none"/>
  <path d="M22.836,414.81A300,300,0,0,1,0.36136,314.72L21.336,313.69A279,279,0,0,0,42.238,406.77Z" style="fill:#000000;stroke:none"/>
  <path d="M0.0000,300.00A300,300,0,0,1,17.537,198.93L37.309,206.01A279,279,0,0,0,21.000,300.00Z" style="fill:#000000;stroke:none"/>
  <path d="M22.836,185.19A300,300,0,0,1,77.715,98.532L93.275,112.64A279,279,0,0,0,42.238,193.23Z" style="fill:#000000;stroke:none"/>
  <path d="M87.868,87.868A300,300,0,0,1,171.73,28.803L180.71,47.787A279,279,0,0,0,102.72,102.72Z" style="fill:#000000;stroke:none"/>
  <path d="M185.19,22.836A300,300,0,0,1,285.28,0.36136L286.31,21.336A279,279,0,0,0,193.23,42.238Z" style="fill:#000000;stroke:none"/>
  <path d="M300.00,0.0000A300,300,0,0,1,401.07,17.537L393.99,37.309A279,279,0,0,0,300.00,21.000Z" style="fill:#000000;stroke:none"/>
  <path d="M414.81,22.836A300,300,0,0,1,501.47,77.715L487.36,93.275A279,279,0,0,0,406.77,42.238Z" style="fill:#000000;stroke:none"/>
  <path d="M512.13,87.868A300,300,0,0,1,571.20,171.73L552.21,180.71A279,279,0,0,0,497.28,102.72Z" style="fill:#000000;stroke:none"/>
  <path d="M577.16,185.19A300,300,0,0,1,599.64,285.28L578.66,286.31A279,279,0,0,0,557.76,193.23Z" style="fill:#000000;stroke:none"/>
</svg>