<svg height="600" viewBox="0 0 600 600" xmlns="http://www.w3.org/2000/svg" xmlns:xlink="http://www.w3.org/1999/xlink">
  <path d="M600.00,300.00A300,300,0,0,1,592.48,366.76L572.00,362.08A279,279,0,0,0,579.00,300.00Z" style="fill:#000000;stroke:none"/>
  <path d="M585.32,392.71A300,300,0,0,1,557.53,453.87L539.51,443.10A279,279,0,0,0,565.34,386.22Z" style="fill:#000000;stroke:none"/>
  <path d="M542.71,476.34A300,300,0,0,1,497.38,525.92L483.56,510.11A279,279,0,0,0,525.72,463.99Z" style="fill:#000000;stroke:none"/>
  <path d="M476.34,542.71A300,300,0,0,1,417.91,575.86L409.65,556.55A279,279,0,0,0,463.99,525.72Z" style="fill:#000000;stroke:none"/>
  <path d="M392.71,585.32A300,300,0,0,1,326.89,598.79L325.01,577.88A279,279,0,0,0,386.22,565.34Z" style="fill:#000000;stroke:none"/>
  <path d="M300.00,600.00A300,300,0,0,1,233.24,592.48L237.92,572.00A279,279,0,0,0,300.00,579.00Z" style="fill:#000000;stroke:none"/>
  <path d="M207.29,585.32A300,300,0,0,1,146.13,557.53L156.90,539.51A279,279,0,0,0,213.78,565.34Z" style="fill:#000000;stroke:none"/>
  <path d="M123.66,542.71A300,300,0,0,1,74.079,497.38L89.893,483.56A279,279,0,0,0,136.01,525.72Z" style="fill:#000000;stroke:none"/>
  <path d="M57.295,476.34A300,300,0,0,1,24.142,417.91L43.452,409.65A279,279,0,0,0,74.284,463.99Z" style="fill:#000000;stroke:none"/>
  <path d="M14.683,392.71A300,300,0,0,1,1.2077,326.89L22.123,325.01A279,279,0,0,0,34.655,386.22Z" style="fill:#000000;stroke:none"/>
  <path d="M0.0000,300.00A300,300,0,0,1,7.5216,233.24L27.995,237.92A279,279,0,0,0,21.000,300.00Z" style="fill:#000000;stroke:none"/>
  <path d="M14.683,207.29A300,300,0,0,1,42.465,146.13L60.493,156.90A279,279,0,0,0,34.655,213.78Z" style="fill:#000000;stroke:none"/>
  <path d="M57.295,123.66A300,300,0,0,1,102.62,74.079L116.44,89.893A279,279,0,0,0,74.284,136.01Z" style="fill:#000000;stroke:none"/>
  <path d="M123.66,57.295A300,300,0,0,1,182.09,24.142L190.35,43.452A279,279,0,0,0,136.01,74.284Z" style="fill:#000000;stroke:none"/>
  <path d="M207.29,14.683A300,300,0,0,1,273.11,1.2077L274.99,22.123A279,279,0,0,0,213.78,34.655Z" style="fill:#000000;stroke:none"/>
  <path d="M300.00,0.0000A300,300,0,0,1,366.76,7.5216L362.08,27.995A279,279,0,0,0,300.00,21.000Z" style="fill:#000000;stroke:none"/>
  <path d="M392.71,14.683A300,300,0,0,1,453.87,42.465L443.10,60.493A279,279,0,0,0,386.22,34.655Z" style="fill:#000000;stroke:none"/>
  <path d="M476.34,57.295A300,300,0,0,1,525.92,102.62L510.11,116.44A279,279,0,0,0,463.99,74.284Z" style="fill:#000000;stroke:none"/>
  <path d="M542.71,123.66A300,300,0,0,1,575.86,182.09L556.55,190.35A279,279,0,0,0,525.72,136.01Z" style="fill:#000000;stroke:none"/>
  <path d="M585.32,207.29A300,300,0,0,1,598.79,273.11L577.88,274.99A279,279,0,0,0,565.34,213.78Z" style="fill:#000000;stroke:none"/>
</svg>