<svg height="600" viewBox="0 0 600 600" xmlns="http://www.w3.org/2000/svg" xmlns:xlink="http://www.w3.org/1999/xlink">
  <path d="M600.00,300.00A300,300,0,0,1,581.75,403.05L572.36,399.61A290,290,0,0,0,590.00,300.00Z" style="fill:#000000;stroke:none"/>
  <path d="M542.71,476.34A300,300,0,0,1,467.37,548.97L461.79,540.67A290,290,0,0,0,534.61,470.46Z" style="fill:#000000;stroke:none"/>
  <path d="M392.71,585.32A300,300,0,0,1,289.06,599.80L289.43,589.81A290,290,0,0,0,389.61,575.81Z" style="fill:#000000;stroke:none"/>
  <path d="M207.29,585.32A300,300,0,0,1,114.93,536.12L121.10,528.24A290,290,0,0,0,210.39,575.81Z" style="fill:#000000;stroke:none"/>
  <path d="M57.295,476.34A300,300,0,0,1,11.493,382.24L21.110,379.50A290,290,0,0,0,65.385,470.46Z" style="fill:#000000;stroke:none"/>
  <path d="M0.0000,300.00A300,300,0,0,1,18.252,196.95L27.644,200.39A290,290,0,0,0,10.000,300.00Z" style="fill:#000000;stroke:none"/>
  <path d="M57.295,123.66A300,300,0,0,1,132.63,51.028L138.21,59.327A290,290,0,0,0,65.385,129.54Z" style="fill:#000000;stroke:none"/>
  <path d="M207.29,14.683A300,300,0,0,1,310.94,0.19943L310.57,10.193A290,290,0,0,0,210.39,24.194Z" style="fill:#000000;stroke:none"/>
  <path d="M392.71,14.683A300,300,0,0,1,485.07,63.885L478.90,71.755A290,290,0,0,0,389.61,24.194Z" style="fill:#000000;stroke:none"/>
  <path d="M542.71,123.66A300,300,0,0,1,588.51,217.76L578.89,220.50A290,290,0,0,0,534.61,129.54Z" style="fill:#000000;stroke:none"/>
</svg>